<?xml version="1.0" encoding="iso-8859-1"?>
<!-- Uploaded to: SVG Repo, www.svgrepo.com, Generator: SVG Repo Mixer Tools -->
<svg height="800px" width="800px" version="1.1" id="Layer_1" xmlns="http://www.w3.org/2000/svg" xmlns:xlink="http://www.w3.org/1999/xlink" 
	 viewBox="0 0 511.999 511.999" xml:space="preserve">
<path style="fill:#BF256B;" d="M402.116,46.718c-38.526-18.75-90.419-29.075-146.115-29.075s-107.59,10.325-146.115,29.075
	c-39.389,19.169-61.978,45.762-61.978,72.959v153.048h416.187V119.677C464.094,92.479,441.503,65.886,402.116,46.718z"/>
<path style="fill:#801948;" d="M340.704,92.816c-21.197-9.656-50.488-14.76-84.705-14.76s-63.507,5.104-84.705,14.76
	c-27.624,12.584-42.836,33.565-42.836,59.08v87.265H383.54v-87.265C383.542,126.381,368.33,105.4,340.704,92.816z"/>
<path style="fill:#FF318F;" d="M464.07,78.057c-86.817,0-168.431,33.923-229.806,95.52c-61.021,61.241-94.46,142.375-94.162,228.467
	v49.344l20.263-0.125c92.334-0.572,170.273-20.514,225.389-57.673c31.287-21.093,55.527-47.75,72.051-79.233
	c17.52-33.38,26.402-72.335,26.402-115.782V78.055H464.07V78.057z"/>
<path style="fill:#FF5AA5;" d="M259.001,165.789C202.631,109.214,127.67,78.057,47.93,78.057H27.792v120.52
	c0,65.869,21.674,125.621,62.676,172.801c39.507,45.457,93.728,75.903,156.802,88.045c4.826,0.929,9.574,1.316,14.256,1.316
	c12.112,0,23.783-2.596,35.17-5.129c10.044-2.235,19.538-4.347,28.207-4.347c0.109,0,0.217,0,0.325,0.001l20.263,0.125v-75.726
	C345.77,296.576,315.054,222.044,259.001,165.789z"/>
<path style="fill:#60DD4D;" d="M497.623,363.522c-26.135-25.638-60.59-39.698-97.19-39.698c-0.542,0-1.089,0.003-1.631,0.009
	c-37,0.42-71.543,15.191-97.268,41.59l-45.534,46.416l-45.535-46.416c-25.726-26.4-60.269-41.17-97.268-41.591
	c-37.212-0.458-72.3,13.671-98.82,39.689L0,377.625L74.041,453.1c26.955,27.476,62.812,41.258,98.773,41.256
	c29.243-0.003,58.551-9.127,83.185-27.404c24.634,18.28,53.938,27.404,83.185,27.404c35.957-0.001,71.82-13.784,98.773-41.256
	l74.041-75.475L497.623,363.522z"/>
<path style="fill:#00C47A;" d="M497.623,363.522c-26.135-25.638-60.59-39.698-97.19-39.698c-0.542,0-1.089,0.003-1.631,0.009
	c-37,0.42-71.543,15.191-97.268,41.59l-45.534,46.416v55.114c24.634,18.279,53.938,27.403,83.185,27.403
	c35.957-0.001,71.82-13.784,98.773-41.256l74.041-75.475L497.623,363.522z"/>
</svg>