<svg width="12" height="12" viewBox="0 0 12 12" fill="none" xmlns="http://www.w3.org/2000/svg">
<path fill-rule="evenodd" clip-rule="evenodd" d="M6.94258 6L11.8046 1.138C12.0649 0.877667 12.0649 0.455667 11.8046 0.195334C11.5443 -0.0649994 11.1223 -0.0649994 10.8619 0.195334L5.99992 5.05733L1.13792 0.195334C0.877583 -0.0649994 0.455583 -0.0649994 0.19525 0.195334C-0.0650833 0.455667 -0.0650833 0.877667 0.19525 1.138L5.05725 6L0.19525 10.862C-0.0650833 11.1223 -0.0650833 11.5443 0.19525 11.8047C0.325583 11.935 0.495917 12 0.666583 12C0.83725 12 1.00758 11.935 1.13792 11.8047L5.99992 6.94267L10.8619 11.8047C10.9923 11.935 11.1626 12 11.3332 12C11.5039 12 11.6743 11.935 11.8046 11.8047C12.0649 11.5443 12.0649 11.1223 11.8046 10.862L6.94258 6Z" fill="#1B1C1D"/>
</svg>
